<svg width="24" height="24" viewBox="0 0 24 24" fill="none" xmlns="http://www.w3.org/2000/svg">
<path fill-rule="evenodd" clip-rule="evenodd" d="M16 4C16 1.79086 14.2109 0 12 0V0C9.78906 0 8 1.79086 8 4C8 6.20914 9.78906 8 12 8C14.2109 8 16 6.20914 16 4ZM4 16C6.21094 16 8 14.2091 8 12C8 9.79086 6.21094 8 4 8C1.78906 8 0 9.79086 0 12H0C0 14.2091 1.78906 16 4 16ZM20 16C22.2109 16 24 14.2091 24 12C24 9.79086 22.2109 8 20 8C17.7891 8 16 9.79086 16 12C16 14.2091 17.7891 16 20 16ZM12 16C14.2109 16 16 17.7909 16 20C16 22.2091 14.2109 24 12 24C9.78906 24 8 22.2091 8 20C8 17.7909 9.78906 16 12 16Z" fill="#FF9800"/>
</svg>
